<svg xmlns="http://www.w3.org/2000/svg" width="100%" height="100%" viewBox="0 0 82 91" fill="#f57f17">
  <path d="M53.7339 2.02319C58.5489 4.73418 63.3235 7.48562 68.1385 10.1966C71.6587 12.1793 75.1385 14.1619 78.6587 16.1446C78.9015 16.266 79.2657 16.3469 79.3466 16.7111C79.1847 16.7515 79.0229 16.792 78.861 16.8729C75.3408 18.8556 71.8206 20.8382 68.3408 22.8209C63.4448 25.5723 58.5894 28.3642 53.6934 31.1157C47.705 27.7573 41.7165 24.3585 35.7281 21.0001C33.1789 19.5434 30.5894 18.1272 27.9998 16.7111C27.9998 16.3469 28.3235 16.3064 28.5662 16.185C36.7801 11.5723 44.9535 6.95961 53.1674 2.30643C53.3292 2.22551 53.4506 2.10412 53.572 2.02319C53.6125 2.02319 53.6934 2.02319 53.7339 2.02319Z" stroke="currentcolor" stroke-width="1" stroke-linecap="round" stroke-linejoin="round"></path>
  <path d="M53.6534 31.0758C58.5493 28.3243 63.4048 25.5324 68.3008 22.781C71.821 20.7983 75.3008 18.8157 78.821 16.833C78.9829 16.7521 79.1447 16.7116 79.3066 16.6711C79.3066 16.9948 79.347 17.2781 79.347 17.6018C79.347 36.2954 79.347 54.9891 79.347 73.6827C79.347 74.3706 79.1447 74.7752 78.5378 75.1394C70.5262 79.6307 62.5551 84.1625 54.5435 88.6538C53.9501 89.0045 53.6534 88.8291 53.6534 88.1278C53.6534 79.1047 53.6534 70.122 53.6534 61.0989C53.6534 60.7752 53.7343 60.411 53.532 60.1278C53.6938 59.9255 53.6534 59.7232 53.6534 59.4804C53.6534 50.0122 53.6534 40.544 53.6534 31.1162V31.0758Z" stroke="currentcolor" stroke-width="1" stroke-linecap="round" stroke-linejoin="round"></path>
  <path d="M27.8382 45.5608C36.1735 50.2544 44.5088 54.9885 52.8845 59.6822C53.0868 59.8036 53.2891 59.9654 53.4914 60.1273C50.2949 61.9481 47.0579 63.8093 43.8614 65.6302C38.7631 68.503 33.6244 71.4163 28.5261 74.2891C28.081 74.5319 27.7169 74.5724 27.2313 74.2891C19.0174 69.6359 10.8036 65.0232 2.58968 60.4105C2.42783 60.3296 2.30645 60.2082 2.18506 60.1273C2.71107 59.6013 3.39893 59.3585 4.00587 58.9943C7.72841 56.8903 11.451 54.8267 15.214 52.7226C19.4221 50.3354 23.6301 47.9885 27.8382 45.6013V45.5608Z" stroke="currentcolor" stroke-width="1" stroke-linecap="round" stroke-linejoin="round"></path>
  <path d="M27.8377 45.5607C23.6296 47.9479 19.4215 50.3352 15.2134 52.6821C11.4909 54.7861 7.72787 56.8497 4.00532 58.9537C3.39839 59.3179 2.67006 59.5607 2.18451 60.0867C1.90128 59.8844 2.06313 59.5607 2.06313 59.3179C2.06313 50.1329 2.06313 40.9884 2.06313 31.8034C2.06313 31.237 2.22498 30.9537 2.71053 30.711C10.803 26.1792 18.8955 21.6069 26.988 17.0347C27.2712 16.8728 27.514 16.5896 27.8782 16.6705C27.8782 16.7919 27.8782 16.8728 27.8782 16.9942C27.8782 26.5029 27.8782 36.0115 27.8782 45.5202L27.8377 45.5607Z" stroke="currentcolor" stroke-width="1" stroke-linecap="round" stroke-linejoin="round"></path>
</svg>